<svg xmlns="http://www.w3.org/2000/svg" viewBox="0 0 240 160"><rect width="240" height="160" fill="white"/><text x="14" y="23" font-size="13" fill="#444" font-family="Arial,sans-serif">Collected data</text><rect x="14" y="34" width="211" height="106" rx="3" fill="#fff" stroke="#bbb" stroke-width="1"/><rect x="14" y="34" width="211" height="22" rx="3" fill="#dfe9e1" stroke="#bbb" stroke-width="1"/><path d="M14 67L225 67" stroke="#b6b6b0" fill="none"/><path d="M14 91L225 91" stroke="#b6b6b0" fill="none"/><path d="M14 115L225 115" stroke="#b6b6b0" fill="none"/><path d="M76 34L76 140" stroke="#b6b6b0" fill="none"/><path d="M155 34L155 140" stroke="#b6b6b0" fill="none"/><text x="24" y="49" font-size="10" fill="#444" font-family="Arial,sans-serif">Source</text><text x="86" y="49" font-size="10" fill="#444" font-family="Arial,sans-serif">Value</text><text x="163" y="49" font-size="10" fill="#444" font-family="Arial,sans-serif">Check</text><text x="170" y="80" font-size="13" fill="#638771" font-family="Arial,sans-serif">✓</text><path d="M25 76L65 76" stroke="#b6b6b0" fill="none"/><path d="M86 76L141 76" stroke="#b6b6b0" fill="none"/><text x="170" y="104" font-size="13" fill="#638771" font-family="Arial,sans-serif">✓</text><path d="M25 100L65 100" stroke="#b6b6b0" fill="none"/><path d="M86 100L141 100" stroke="#b6b6b0" fill="none"/><text x="170" y="130" font-size="13" fill="#638771" font-family="Arial,sans-serif">✓</text><path d="M25 126L65 126" stroke="#b6b6b0" fill="none"/><path d="M86 126L141 126" stroke="#b6b6b0" fill="none"/></svg>
